<svg width="350" height="246" viewBox="0 0 350 246" fill="none" xmlns="http://www.w3.org/2000/svg">
<g clip-path="url(#clip0)">
<path d="M310.267 45.9819C320.606 45.9819 328.988 37.5965 328.988 27.2525C328.988 16.9086 320.606 8.52319 310.267 8.52319C299.927 8.52319 291.545 16.9086 291.545 27.2525C291.545 37.5965 299.927 45.9819 310.267 45.9819Z" fill="#77CEB2"/>
<path d="M240.102 76.5943L225.434 47.7815L240.147 72.9965L240.28 62.6833L230.2 41.8551L240.318 59.9565L240.558 41.4093L229.599 24.7399L240.594 38.4926L241.394 4.63573L241.398 4.49512L241.399 4.6381L241.272 47.5963L253.37 30.2065L241.307 51.2389L241.785 71.9742L241.834 71.4261L255.784 53.0806L241.818 73.367L241.878 75.9604L241.901 76.0013L241.884 76.213L242.517 103.657C241.604 103.696 240.682 103.711 239.751 103.704L239.777 101.569L227.05 80.5539L239.803 99.5277L240.102 76.5943Z" fill="#3F3D56"/>
<path d="M171.76 93.057L157.092 64.2441L171.805 89.4592L171.939 79.146L161.859 58.3178L171.976 76.4192L172.216 57.8719L161.257 41.2026L172.252 54.9552L173.053 21.0984L173.057 20.9578L173.057 21.1007L172.931 64.059L185.029 46.6691L172.965 67.7016L173.443 88.4369L173.492 87.8887L187.443 69.5432L173.476 89.8297L173.536 92.423L173.56 92.4639L173.542 92.6757L174.175 120.12C173.262 120.158 172.34 120.174 171.409 120.167L171.435 118.032L158.708 97.0165L171.461 115.99L171.76 93.057Z" fill="#CBCBCB"/>
<path d="M298.919 72.0992L284.251 43.2863L298.964 68.5014L299.098 58.1882L289.018 37.36L299.135 55.4614L299.375 36.9142L288.416 20.2448L299.411 33.9975L300.212 0.140614L300.216 0L300.216 0.142979L300.09 43.1012L312.188 25.7114L300.124 46.7438L300.602 67.4791L300.651 66.931L314.602 48.5854L300.635 68.8719L300.696 71.4653L300.719 71.5062L300.702 71.7179L301.334 99.1623C300.421 99.2004 299.499 99.2159 298.568 99.2088L298.595 97.0738L285.867 76.0588L298.621 95.0326L298.919 72.0992Z" fill="#3F3D56"/>
<path d="M46.4073 171.11C54.9516 164.809 63.912 159.093 73.2271 154.001C99.2798 139.619 131.318 127.322 167.742 117.795C170.245 117.138 172.769 116.496 175.314 115.869C180.718 114.531 186.212 113.257 191.796 112.047C193.175 111.749 194.558 111.453 195.945 111.158C203.715 109.523 211.641 108.014 219.722 106.63C219.884 106.601 220.046 106.575 220.212 106.549C222.109 106.221 224.015 105.904 225.929 105.597C264.174 99.3804 305.621 95.9601 348.923 95.9085C349.281 95.9048 349.642 95.9048 350 95.9048V245.702H0C0 218.543 16.8841 193.074 46.4073 171.11Z" fill="#F1F1F1"/>
<path d="M115.95 188.196C130.865 177.101 149.962 167.165 172.323 158.786C174.805 157.853 177.327 156.941 179.891 156.052C180.248 155.927 180.61 155.801 180.971 155.676C184.235 154.554 187.562 153.462 190.951 152.4C196.679 150.609 202.569 148.917 208.621 147.323C212.953 146.178 217.362 145.087 221.846 144.05C223.287 143.713 224.734 143.386 226.187 143.069C229.49 142.333 232.833 141.63 236.215 140.958C270.791 134.066 309.346 130.218 350 130.218V245.702H80.1719C80.1719 224.763 93.1908 205.127 115.95 188.196Z" fill="#04B078"/>
<path d="M108.876 239.71L109.544 240.027C111.81 235.333 114.577 230.898 117.797 226.8L117.215 226.346C113.963 230.488 111.167 234.968 108.876 239.71ZM127.873 214.761L128.379 215.3C131.997 211.933 135.802 208.772 139.775 205.832C139.996 205.666 140.221 205.5 140.446 205.334L140.007 204.74C139.782 204.906 139.557 205.072 139.332 205.242C135.339 208.199 131.513 211.377 127.873 214.761ZM153.111 196.029L153.491 196.66C157.791 194.063 162.405 191.509 167.199 189.071L166.864 188.41C162.055 190.86 157.426 193.424 153.111 196.029ZM181.093 181.721L181.384 182.396C186.042 180.37 190.936 178.393 195.922 176.522L195.664 175.832C190.663 177.707 185.762 179.688 181.093 181.721ZM210.501 170.648L210.726 171.349C212.032 170.925 213.341 170.508 214.665 170.091C218.272 168.966 221.997 167.859 225.741 166.811L225.541 166.099C221.791 167.151 218.058 168.258 214.444 169.39C213.121 169.805 211.807 170.224 210.501 170.648H210.501ZM245.365 161.033C243.82 161.388 242.263 161.756 240.744 162.125L240.917 162.841C242.437 162.476 243.989 162.107 245.535 161.749C246.999 161.41 248.456 161.078 249.868 160.771C251.974 160.303 254.113 159.842 256.223 159.406L256.075 158.683C253.958 159.122 251.819 159.58 249.71 160.048C248.297 160.358 246.833 160.69 245.365 161.033L245.365 161.033ZM271.506 155.739L271.635 156.466C276.714 155.576 281.929 154.743 287.129 153.99L287.022 153.259C281.814 154.016 276.596 154.85 271.506 155.739ZM302.604 151.226L302.689 151.961C307.83 151.363 313.082 150.824 318.301 150.356L318.234 149.621C313.012 150.09 307.753 150.629 302.604 151.226H302.604ZM333.905 148.43L333.949 149.168C339.127 148.839 344.401 148.574 349.624 148.378L349.598 147.64C344.364 147.839 339.087 148.105 333.905 148.43H333.905Z" fill="white"/>
<path d="M186.242 205.467C218.83 181.223 279.964 164.9 350 164.9V245.702H161.207C161.207 231.054 170.317 217.314 186.242 205.467Z" fill="#F1F1F1"/>
<path opacity="0.2" d="M46.4073 171.11L115.95 188.196L186.241 205.467L350 245.702H0C0 218.543 16.8841 193.074 46.4073 171.11Z" fill="black"/>
<path d="M88.6798 155.641L86.3169 155.641L85.1924 146.523H88.6802L88.6798 155.641Z" fill="#FFB7B7"/>
<path d="M89.2818 157.933L81.6621 157.933V157.836C81.6622 157.049 81.9747 156.295 82.5308 155.738C83.087 155.182 83.8414 154.869 84.6279 154.869H84.6281L89.282 154.869L89.2818 157.933Z" fill="#2F2E41"/>
<path d="M109.556 153.9L107.273 154.513L103.824 145.997L107.193 145.093L109.556 153.9Z" fill="#FFB7B7"/>
<path d="M110.732 155.957L103.372 157.933L103.347 157.84C103.144 157.08 103.25 156.27 103.643 155.588C104.036 154.907 104.683 154.409 105.443 154.205L105.443 154.205L109.938 152.998L110.732 155.957Z" fill="#2F2E41"/>
<path d="M78.8391 113.352C77.4733 115.109 81.7659 129.749 81.961 129.944C82.1562 130.139 81.7659 131.311 81.7659 131.311C81.765 131.522 81.8336 131.728 81.961 131.896C82.1561 132.091 81.961 132.287 81.961 132.677C81.961 133.067 81.961 133.067 82.3513 133.848C82.585 134.403 82.6528 135.013 82.5464 135.605L85.0829 150.44C84.8954 150.521 84.7379 150.658 84.6329 150.834C84.5279 151.009 84.4805 151.212 84.4976 151.416C84.4976 152.197 88.3999 152.587 89.7658 152.392C91.1316 152.197 88.7902 134.824 88.7902 134.824C88.7902 134.824 88.7902 130.335 89.1804 129.944C89.5707 129.554 89.1804 129.554 89.1804 128.773C89.1804 127.992 88.595 126.821 88.7902 126.235C88.9853 125.65 89.1804 117.256 89.1804 117.256C89.1804 117.256 93.6682 125.65 93.6682 126.821C93.6682 127.992 95.034 129.944 95.034 129.944L104.009 148.262C104.009 148.262 103.424 149.433 104.009 150.409C104.595 151.385 107.131 150.604 109.668 149.628C112.204 148.652 108.692 147.09 108.692 147.09L103.229 131.506C103.242 130.916 103.307 130.328 103.424 129.749C103.619 128.773 102.839 129.163 102.253 128.773C101.668 128.383 101.863 128.383 102.253 127.602C102.644 126.821 101.668 125.064 101.668 125.064L99.1315 110.62C99.1315 110.62 80.2049 111.596 78.8391 113.352Z" fill="#2F2E41"/>
<path d="M85.1258 78.1664C87.9276 78.1664 90.1989 75.8942 90.1989 73.0913C90.1989 70.2883 87.9276 68.0161 85.1258 68.0161C82.324 68.0161 80.0527 70.2883 80.0527 73.0913C80.0527 75.8942 82.324 78.1664 85.1258 78.1664Z" fill="#FFB8B8"/>
<path d="M83.239 79.7132C83.239 79.7132 76.3181 82.8858 75.7328 84.4474C75.1474 86.0089 79.4244 100.469 79.4244 100.469C79.4244 100.469 79.6839 106.549 78.9034 108.892C78.123 111.234 78.2537 111.596 78.2537 111.596V113.352C78.2537 114.328 84.4975 113.547 87.6194 112.572C90.7413 111.596 98.7412 111.791 99.5217 111.596C100.302 111.4 98.2165 108.892 98.2165 108.892C100.948 108.696 98.2165 102.977 98.2165 102.977C98.2165 102.977 97.9373 84.463 97.1568 81.9254C96.3763 79.3879 89.1512 78.9246 89.1512 78.9246L85.4731 80.1687L83.239 79.7132Z" fill="#008B5E"/>
<path d="M91.2711 71.7556C91.5322 70.4857 91.2841 69.164 90.5802 68.0754C90.1622 67.4365 89.6158 66.8917 88.9757 66.4758C88.3356 66.0598 87.616 65.7818 86.8626 65.6594C85.3719 65.4464 83.8519 65.7039 82.5145 66.3962C81.7048 66.7936 80.8289 67.3266 79.9812 67.0356L80.2302 67.4825L79.5996 67.4899L79.83 68.0128L79.228 68.0988L79.6936 68.3783C79.0712 69.4872 78.6518 70.6983 78.4549 71.9547C78.3364 72.4514 78.3753 72.9726 78.5662 73.4462C78.7941 73.8917 79.382 74.1519 79.7583 73.8447C79.9944 73.6519 80.0747 73.3138 80.2403 73.0491C80.4059 72.7845 80.7865 72.6 80.9838 72.838L81.4927 71.8202L81.9001 72.152C82.8812 71.2884 84.0134 70.6138 85.2398 70.1622C85.3887 70.0844 85.5535 70.0415 85.7215 70.037C85.8895 70.0324 86.0564 70.0662 86.2094 70.1358C86.6641 70.4273 86.5982 71.1731 86.9132 71.6311C87.4254 72.3758 88.6867 72.0666 89.1717 72.8321C89.3142 73.1364 89.4105 73.4602 89.4575 73.7928C89.5442 74.1179 89.7532 74.4596 90.0666 74.4807C90.7274 73.7988 90.9798 72.8533 91.2711 71.7556Z" fill="#2F2E41"/>
<path d="M103.516 112.058C103.257 111.882 103.04 111.652 102.879 111.384C102.718 111.115 102.619 110.814 102.587 110.503C102.555 110.192 102.592 109.877 102.695 109.581C102.797 109.286 102.964 109.016 103.182 108.792L99.7705 101.991L103.695 102.456L106.333 108.843C106.686 109.235 106.882 109.742 106.886 110.269C106.889 110.796 106.699 111.306 106.352 111.702C106.005 112.098 105.524 112.354 105.002 112.419C104.479 112.485 103.95 112.356 103.516 112.058L103.516 112.058Z" fill="#FFB8B8"/>
<path d="M100.706 107.177L96.7287 94.2979L92.1896 84.4517C91.998 84.0361 91.9034 83.5823 91.9127 83.1247C91.9221 82.6671 92.0353 82.2176 92.2438 81.8101C92.4523 81.4027 92.7506 81.0479 93.1161 80.7727C93.4817 80.4975 93.905 80.309 94.3541 80.2214C95.066 80.086 95.8027 80.2099 96.4313 80.5705C97.0599 80.9311 97.5388 81.5048 97.7816 82.1878L106.059 105.823C106.104 105.952 106.121 106.088 106.109 106.224C106.097 106.359 106.057 106.491 105.99 106.609C105.924 106.728 105.833 106.831 105.723 106.912C105.613 106.992 105.488 107.049 105.355 107.077L101.821 107.831C101.754 107.845 101.685 107.853 101.617 107.853C101.413 107.853 101.214 107.787 101.05 107.665C100.886 107.544 100.765 107.372 100.706 107.177Z" fill="#008B5E"/>
<path d="M76.1317 116.506C76.3462 116.278 76.5083 116.006 76.6064 115.709C76.7045 115.411 76.7362 115.096 76.6994 114.785C76.6626 114.475 76.5581 114.176 76.3933 113.909C76.2285 113.643 76.0074 113.417 75.7455 113.245L77.5918 105.864L73.8629 107.175L72.6813 113.983C72.4228 114.442 72.3416 114.98 72.4531 115.495C72.5646 116.01 72.8611 116.467 73.2864 116.777C73.7117 117.088 74.2363 117.233 74.7607 117.182C75.285 117.132 75.7729 116.892 76.1317 116.506V116.506Z" fill="#FFB8B8"/>
<path d="M77.0686 111.987C77.0017 112.002 76.9335 112.01 76.865 112.011L73.2513 112.046C73.1153 112.048 72.9806 112.02 72.8561 111.965C72.7316 111.91 72.6203 111.83 72.5294 111.728C72.4385 111.627 72.3702 111.508 72.3291 111.378C72.2879 111.248 72.2749 111.111 72.2907 110.976L75.2148 86.1035C75.3027 85.384 75.645 84.7197 76.1798 84.2305C76.7146 83.7414 77.4066 83.4597 78.1309 83.4364C78.5882 83.4239 79.0424 83.5155 79.4592 83.7043C79.876 83.8931 80.2445 84.1742 80.5368 84.5264C80.8291 84.8785 81.0376 85.2925 81.1465 85.737C81.2555 86.1816 81.262 86.6451 81.1657 87.0925L78.8831 97.6922L77.8104 111.129C77.7951 111.333 77.7147 111.526 77.5812 111.681C77.4476 111.835 77.2679 111.943 77.0686 111.987Z" fill="#008B5E"/>
</g>
<defs>
<clipPath id="clip0">
<rect width="350" height="245.702" fill="white"/>
</clipPath>
</defs>
</svg>
