<svg width="574" height="344" viewBox="0 0 574 344" fill="none" xmlns="http://www.w3.org/2000/svg">
<path d="M29.948 343.231C29.9096 343.063 26.1958 326.182 33.7802 312.162C41.3646 298.143 57.5541 291.96 57.7168 291.899L58.4567 291.622L58.6315 292.391C58.6699 292.56 62.3836 309.44 54.7992 323.46C47.2152 337.479 31.0253 343.662 30.8627 343.723L30.1224 344L29.948 343.231ZM57.442 293.498C54.1991 294.889 41.4003 300.974 34.9947 312.815C28.5884 324.657 30.5212 338.661 31.1375 342.124C34.379 340.737 47.1728 334.661 53.5848 322.807C59.9907 310.966 58.0586 296.963 57.442 293.498V293.498Z" fill="#F1F1F1"/>
<path d="M49.0033 318.542C35.3738 326.716 30.1246 342.951 30.1246 342.951C30.1246 342.951 46.9733 345.934 60.6028 337.76C74.2323 329.586 79.4815 313.352 79.4815 313.352C79.4815 313.352 62.6328 310.369 49.0033 318.542Z" fill="#F1F1F1"/>
<path d="M255.405 187.513C255.613 186.444 255.583 185.342 255.317 184.286C255.052 183.229 254.557 182.243 253.868 181.398C253.179 180.553 252.312 179.868 251.329 179.393C250.346 178.917 249.27 178.663 248.177 178.647L241.865 162.825L231.284 164.304L240.512 186.521C240.607 188.353 241.372 190.086 242.663 191.393C243.954 192.7 245.681 193.489 247.517 193.611C249.353 193.733 251.169 193.18 252.623 192.056C254.077 190.932 255.067 189.316 255.405 187.513Z" fill="#FFE0B0"/>
<path d="M235.911 181.954L232.633 174.161L212.202 135.396L213.313 63.6665L213.526 63.6383C226.599 61.9166 235.444 121.959 235.815 124.516L248.723 168.522L251.796 178.222L235.911 181.954Z" fill="#008B5E"/>
<path d="M204.518 333.207L214.452 333.207L219.177 295.015L204.516 295.015L204.518 333.207Z" fill="#FFE0B0"/>
<path d="M201.984 329.975L221.547 329.974H221.548C224.854 329.974 228.025 331.283 230.363 333.614C232.701 335.944 234.015 339.105 234.015 342.4V342.804L201.985 342.805L201.984 329.975Z" fill="#2F2E41"/>
<path d="M113.182 318.121L121.332 323.782L147.116 295.142L135.087 286.787L113.182 318.121Z" fill="#FFE0B0"/>
<path d="M112.957 314.025L129.008 325.173L129.008 325.174C131.721 327.058 133.572 329.94 134.153 333.184C134.734 336.428 133.999 339.77 132.109 342.474L131.877 342.805L105.598 324.552L112.957 314.025Z" fill="#2F2E41"/>
<path d="M199.059 324.23L198.63 252.585L192.379 207.535L180.726 247.152L180.704 247.184L138.475 308.294L122.043 299.995L122.133 299.782C123.137 297.401 146.799 241.486 153.159 241.486C153.715 241.524 154.271 241.428 154.781 241.205C155.291 240.981 155.739 240.638 156.086 240.204C157.952 237.719 156.432 232.447 156.417 232.394C154.596 224.869 159.174 222.306 160.085 221.878L162.538 171.417L162.792 171.434L229.275 176.082L226.486 239.172L220.486 321.833L220.28 321.856L199.059 324.23Z" fill="#2F2E41"/>
<path d="M230.291 187.264L230.003 187.241L158.503 181.496L158.679 157.914L162.179 96.3419L162.198 96.2992L176.45 65.4584L186.553 60.8984L201.293 60.1253L201.329 60.1342L214.78 63.4562L228.774 163.584L230.291 187.264Z" fill="#008B5E"/>
<path d="M203.602 52.2213C212.725 47.2504 216.078 35.8489 211.091 26.7555C206.104 17.662 194.666 14.32 185.543 19.291C176.42 24.2619 173.067 35.6634 178.054 44.7569C183.041 53.8503 194.479 57.1923 203.602 52.2213Z" fill="#FFE0B0"/>
<path d="M175.64 40.4665V33.1554C175.64 33.1554 169.725 26.2113 176.232 24.462C176.232 24.462 178.006 6.96982 193.385 15.1329C193.385 15.1329 214.68 11.6344 212.314 23.879C212.314 23.879 217.637 20.6823 215.863 28.8454L212.431 41.9946C212.431 41.9946 214.088 33.3086 208.765 32.1424L205.807 30.3932C205.807 30.3932 197.526 38.5562 185.104 28.6439C185.104 28.6439 179.781 27.3774 180.372 32.6251C180.964 37.8728 175.64 40.4665 175.64 40.4665Z" fill="#2F2E41"/>
<path d="M192.612 169.654C192.624 168.565 192.397 167.486 191.945 166.494C191.494 165.502 190.829 164.621 189.999 163.913C189.169 163.204 188.193 162.686 187.14 162.394C186.087 162.103 184.983 162.044 183.905 162.224L174.848 147.789L164.705 151.135L177.783 171.342C178.206 173.127 179.271 174.695 180.776 175.75C182.281 176.804 184.122 177.272 185.95 177.064C187.778 176.856 189.466 175.986 190.694 174.621C191.922 173.255 192.604 171.488 192.612 169.654Z" fill="#FFE0B0"/>
<path d="M169.219 165.103L152.832 131.942L152.847 131.861C152.913 131.494 159.509 94.9873 164.554 81.5686C169.63 68.0649 176.58 65.3537 176.873 65.2449L177.02 65.1905L183.25 71.1479L174.619 128.574L183.923 156.269L169.219 165.103Z" fill="#008B5E"/>
<path d="M574 0H542.272V31.6255H574V0Z" fill="#F1F1F1"/>
<path d="M325.696 123.064H293.968V154.69H325.696V123.064Z" fill="#F1F1F1"/>
<path d="M311.776 140.831H562.615V14.2548H311.776V140.831Z" fill="white"/>
<path d="M564.684 142.894H309.707V12.1922H564.684V142.894ZM313.846 138.769H560.546V16.3172H313.846V138.769Z" fill="#E5E5E5"/>
<path d="M534.877 58.6555H341.885V65.035H534.877V58.6555Z" fill="#E5E5E5"/>
<path d="M534.877 74.1266H341.885V80.5061H534.877V74.1266Z" fill="#E5E5E5"/>
<path d="M534.877 96.9702H499.011V102.506H534.877V96.9702Z" fill="#008B5E"/>
<path d="M263.478 343.972H0.689733C0.506804 343.972 0.331368 343.9 0.202018 343.771C0.0726676 343.642 0 343.467 0 343.285C0 343.102 0.0726676 342.927 0.202018 342.799C0.331368 342.67 0.506804 342.597 0.689733 342.597H263.478C263.661 342.597 263.836 342.67 263.966 342.799C264.095 342.927 264.168 343.102 264.168 343.285C264.168 343.467 264.095 343.642 263.966 343.771C263.836 343.9 263.661 343.972 263.478 343.972Z" fill="#CBCBCB"/>
</svg>
